<svg id="visual" viewBox="0 0 900 600" width="900" height="600" xmlns="http://www.w3.org/2000/svg" xmlns:xlink="http://www.w3.org/1999/xlink" version="1.1"><path d="M556 600L560.3 585.7C564.7 571.3 573.3 542.7 580.8 514.2C588.3 485.7 594.7 457.3 593.8 428.8C593 400.3 585 371.7 578.8 343C572.7 314.3 568.3 285.7 561.5 257C554.7 228.3 545.3 199.7 540 171.2C534.7 142.7 533.3 114.3 534 85.8C534.7 57.3 537.3 28.7 538.7 14.3L540 0L900 0L900 14.3C900 28.7 900 57.3 900 85.8C900 114.3 900 142.7 900 171.2C900 199.7 900 228.3 900 257C900 285.7 900 314.3 900 343C900 371.7 900 400.3 900 428.8C900 457.3 900 485.7 900 514.2C900 542.7 900 571.3 900 585.7L900 600Z" fill="#ff304f"></path><path d="M705 600L706.2 585.7C707.3 571.3 709.7 542.7 709 514.2C708.3 485.7 704.7 457.3 690.8 428.8C677 400.3 653 371.7 654.3 343C655.7 314.3 682.3 285.7 676.2 257C670 228.3 631 199.7 619.8 171.2C608.7 142.7 625.3 114.3 644.5 85.8C663.7 57.3 685.3 28.7 696.2 14.3L707 0L900 0L900 14.3C900 28.7 900 57.3 900 85.8C900 114.3 900 142.7 900 171.2C900 199.7 900 228.3 900 257C900 285.7 900 314.3 900 343C900 371.7 900 400.3 900 428.8C900 457.3 900 485.7 900 514.2C900 542.7 900 571.3 900 585.7L900 600Z" fill="#e3224c"></path><path d="M704 600L714.3 585.7C724.7 571.3 745.3 542.7 751.2 514.2C757 485.7 748 457.3 741.5 428.8C735 400.3 731 371.7 724.5 343C718 314.3 709 285.7 713 257C717 228.3 734 199.7 735 171.2C736 142.7 721 114.3 714.5 85.8C708 57.3 710 28.7 711 14.3L712 0L900 0L900 14.3C900 28.7 900 57.3 900 85.8C900 114.3 900 142.7 900 171.2C900 199.7 900 228.3 900 257C900 285.7 900 314.3 900 343C900 371.7 900 400.3 900 428.8C900 457.3 900 485.7 900 514.2C900 542.7 900 571.3 900 585.7L900 600Z" fill="#c71548"></path><path d="M745 600L754.8 585.7C764.7 571.3 784.3 542.7 784.7 514.2C785 485.7 766 457.3 762.3 428.8C758.7 400.3 770.3 371.7 775.8 343C781.3 314.3 780.7 285.7 772.7 257C764.7 228.3 749.3 199.7 752.3 171.2C755.3 142.7 776.7 114.3 784.8 85.8C793 57.3 788 28.7 785.5 14.3L783 0L900 0L900 14.3C900 28.7 900 57.3 900 85.8C900 114.3 900 142.7 900 171.2C900 199.7 900 228.3 900 257C900 285.7 900 314.3 900 343C900 371.7 900 400.3 900 428.8C900 457.3 900 485.7 900 514.2C900 542.7 900 571.3 900 585.7L900 600Z" fill="#ab0843"></path><path d="M808 600L816.8 585.7C825.7 571.3 843.3 542.7 849.7 514.2C856 485.7 851 457.3 848.2 428.8C845.3 400.3 844.7 371.7 835.7 343C826.7 314.3 809.3 285.7 803.3 257C797.3 228.3 802.7 199.7 811.7 171.2C820.7 142.7 833.3 114.3 834.3 85.8C835.3 57.3 824.7 28.7 819.3 14.3L814 0L900 0L900 14.3C900 28.7 900 57.3 900 85.8C900 114.3 900 142.7 900 171.2C900 199.7 900 228.3 900 257C900 285.7 900 314.3 900 343C900 371.7 900 400.3 900 428.8C900 457.3 900 485.7 900 514.2C900 542.7 900 571.3 900 585.7L900 600Z" fill="#90003c"></path></svg>