<?xml version="1.0" encoding="utf-8"?>
<svg width="483px" height="420px" viewBox="0 0 483 420" version="1.1" xmlns:xlink="http://www.w3.org/1999/xlink" xmlns="http://www.w3.org/2000/svg">
  <g id="TG">
    <g id="T" fill="#28C7FA">
      <path d="M10.4248 87.4658L206.445 87.4658L206.445 122.5L125.952 122.5L125.952 332.534L90.918 332.534L90.918 122.5L10.4248 122.5L10.4248 87.4658Z" />
    </g>
    <g id="G" fill="#FFFFFF">
      <path d="M248.486 122.5Q248.486 115.322 251.221 108.914Q253.955 102.505 258.74 97.8052Q263.525 93.1055 269.934 90.2856Q276.343 87.4658 283.521 87.4658L416.479 87.4658Q423.657 87.4658 430.066 90.2856Q436.475 93.1055 441.26 97.8052Q446.045 102.505 448.779 108.914Q451.514 115.322 451.514 122.5L451.514 154.116L416.479 154.116L416.479 122.5L283.521 122.5L283.521 297.5L416.479 297.5L416.479 238.027L350 238.027L350 202.993L451.514 202.993L451.514 297.5Q451.514 304.678 448.779 311.086Q446.045 317.495 441.26 322.28Q436.475 327.065 430.066 329.8C425.793 331.623 421.265 332.534 416.479 332.534L283.521 332.534C278.735 332.534 274.207 331.623 269.934 329.8Q263.525 327.065 258.74 322.28Q253.955 317.495 251.221 311.086Q248.486 304.678 248.486 297.5L248.486 122.5Z" />
    </g>
  </g>
</svg>