<svg id="visual" viewBox="0 0 960 540" width="960" height="540" xmlns="http://www.w3.org/2000/svg" xmlns:xlink="http://www.w3.org/1999/xlink" version="1.1"><path d="M0 455L22.8 444.2C45.7 433.3 91.3 411.7 137 403.7C182.7 395.7 228.3 401.3 274 407.7C319.7 414 365.3 421 411.2 428.7C457 436.3 503 444.7 548.8 433.5C594.7 422.3 640.3 391.7 686 380C731.7 368.3 777.3 375.7 823 384.2C868.7 392.7 914.3 402.3 937.2 407.2L960 412L960 541L937.2 541C914.3 541 868.7 541 823 541C777.3 541 731.7 541 686 541C640.3 541 594.7 541 548.8 541C503 541 457 541 411.2 541C365.3 541 319.7 541 274 541C228.3 541 182.7 541 137 541C91.3 541 45.7 541 22.8 541L0 541Z" fill="#28C7FA" stroke-linecap="round" stroke-linejoin="miter"></path></svg>