<svg id="visual" viewBox="0 0 1920 1080" width="1920" height="1080" xmlns="http://www.w3.org/2000/svg" xmlns:xlink="http://www.w3.org/1999/xlink" version="1.1"><rect x="0" y="0" width="1920" height="1080" fill="#002651"></rect><defs><linearGradient id="grad1_0" x1="43.8%" y1="0%" x2="100%" y2="100%"><stop offset="14.444444444444446%" stop-color="#002651" stop-opacity="1"></stop><stop offset="85.55555555555554%" stop-color="#002651" stop-opacity="1"></stop></linearGradient></defs><defs><linearGradient id="grad2_0" x1="0%" y1="0%" x2="56.3%" y2="100%"><stop offset="14.444444444444446%" stop-color="#002651" stop-opacity="1"></stop><stop offset="85.55555555555554%" stop-color="#002651" stop-opacity="1"></stop></linearGradient></defs><g transform="translate(1920, 0)"><path d="M0 486C-68.2 483.4 -136.5 480.8 -186 449C-235.5 417.2 -266.3 356.1 -309.7 309.7C-353.1 263.3 -409.2 231.7 -440.7 182.5C-472.2 133.4 -479.1 66.7 -486 0L0 0Z" fill="#28C7FA"></path></g><g transform="translate(0, 1080)"><path d="M0 -486C56.4 -458 112.7 -430.1 168.4 -406.5C224 -382.9 278.9 -363.7 328.8 -328.8C378.7 -293.9 423.6 -243.4 449 -186C474.4 -128.6 480.2 -64.3 486 0L0 0Z" fill="#28C7FA"></path></g></svg>